<svg width="28" height="28" viewBox="0 0 28 28" fill="none" xmlns="http://www.w3.org/2000/svg">
<path d="M18.3667 24.5C16.2877 24.5 14.5326 24.0567 13.1014 23.17C11.6703 22.274 10.5873 21.0373 9.85237 19.46C9.11746 17.8827 8.75 16.0627 8.75 14C8.75 11.9373 9.11746 10.1173 9.85237 8.54C10.5873 6.96267 11.6703 5.73067 13.1014 4.844C14.5326 3.948 16.2877 3.5 18.3667 3.5C20.7938 3.5 22.7761 4.102 24.3137 5.306C25.8512 6.50067 26.9052 8.106 27.4757 10.122L25.3 10.668C24.8552 9.072 24.0574 7.80733 22.9067 6.874C21.756 5.94067 20.2426 5.474 18.3667 5.474C16.7325 5.474 15.3739 5.83333 14.2908 6.552C13.2078 7.27067 12.3907 8.274 11.8395 9.562C11.298 10.8407 11.0176 12.32 10.9982 14C10.9886 15.68 11.2545 17.1593 11.796 18.438C12.3472 19.7167 13.1691 20.72 14.2618 21.448C15.3642 22.1667 16.7325 22.526 18.3667 22.526C20.2426 22.526 21.756 22.0593 22.9067 21.126C24.0574 20.1833 24.8552 18.9187 25.3 17.332L27.4757 17.878C26.9052 19.894 25.8512 21.504 24.3137 22.708C22.7761 23.9027 20.7938 24.5 18.3667 24.5Z" fill="#AB7D41" fill-opacity="0.5"/>
<path d="M10.4917 24.5C8.41266 24.5 6.65758 24.0567 5.22644 23.17C3.7953 22.274 2.71228 21.0373 1.97737 19.46C1.24245 17.8827 0.875 16.0627 0.875 14C0.875 11.9373 1.24245 10.1173 1.97737 8.54C2.71228 6.96267 3.7953 5.73067 5.22644 4.844C6.65758 3.948 8.41266 3.5 10.4917 3.5C12.9188 3.5 14.9011 4.102 16.4387 5.306C17.9762 6.50067 19.0302 8.106 19.6007 10.122L17.425 10.668C16.9802 9.072 16.1824 7.80733 15.0317 6.874C13.881 5.94067 12.3676 5.474 10.4917 5.474C8.85748 5.474 7.49886 5.83333 6.41583 6.552C5.33281 7.27067 4.51571 8.274 3.96452 9.562C3.42301 10.8407 3.14258 12.32 3.12324 14C3.11357 15.68 3.3795 17.1593 3.92101 18.438C4.47219 19.7167 5.29413 20.72 6.38683 21.448C7.48919 22.1667 8.85748 22.526 10.4917 22.526C12.3676 22.526 13.881 22.0593 15.0317 21.126C16.1824 20.1833 16.9802 18.9187 17.425 17.332L19.6007 17.878C19.0302 19.894 17.9762 21.504 16.4387 22.708C14.9011 23.9027 12.9188 24.5 10.4917 24.5Z" fill="#AB7D41"/>
</svg>
