<svg width="62" height="62" viewBox="0 0 62 62" fill="none" xmlns="http://www.w3.org/2000/svg">
<rect width="62" height="62" rx="31" fill="white"/>
<path d="M26 29H29M29 29H32M29 29V26M29 29V32M34 34L40 40M29 36C28.0807 36 27.1705 35.8189 26.3212 35.4672C25.4719 35.1154 24.7003 34.5998 24.0503 33.9497C23.4002 33.2997 22.8846 32.5281 22.5328 31.6788C22.1811 30.8295 22 29.9193 22 29C22 28.0807 22.1811 27.1705 22.5328 26.3212C22.8846 25.4719 23.4002 24.7003 24.0503 24.0503C24.7003 23.4002 25.4719 22.8846 26.3212 22.5328C27.1705 22.1811 28.0807 22 29 22C30.8565 22 32.637 22.7375 33.9497 24.0503C35.2625 25.363 36 27.1435 36 29C36 30.8565 35.2625 32.637 33.9497 33.9497C32.637 35.2625 30.8565 36 29 36Z" stroke="#1A1916" stroke-width="2" stroke-linecap="round" stroke-linejoin="round"/>
</svg>
