<svg width="186" height="28" viewBox="0 0 186 28" fill="none" xmlns="http://www.w3.org/2000/svg">
<path d="M46.7451 23C44.8545 23 43.2585 22.62 41.9571 21.86C40.6556 21.092 39.6708 20.032 39.0025 18.68C38.3342 17.328 38 15.768 38 14C38 12.232 38.3342 10.672 39.0025 9.32C39.6708 7.968 40.6556 6.912 41.9571 6.152C43.2585 5.384 44.8545 5 46.7451 5C48.9523 5 50.755 5.516 52.1531 6.548C53.5513 7.572 54.5098 8.948 55.0286 10.676L53.0501 11.144C52.6456 9.776 51.9201 8.692 50.8737 7.892C49.8272 7.092 48.4511 6.692 46.7451 6.692C45.259 6.692 44.0235 7 43.0387 7.616C42.0538 8.232 41.3107 9.092 40.8095 10.196C40.3171 11.292 40.0621 12.56 40.0445 14C40.0357 15.44 40.2775 16.708 40.7699 17.804C41.2712 18.9 42.0186 19.76 43.0123 20.384C44.0147 21 45.259 21.308 46.7451 21.308C48.4511 21.308 49.8272 20.908 50.8737 20.108C51.9201 19.3 52.6456 18.216 53.0501 16.856L55.0286 17.324C54.5098 19.052 53.5513 20.432 52.1531 21.464C50.755 22.488 48.9523 23 46.7451 23Z" fill="black"/>
<path d="M65.6288 23C63.7382 23 62.1422 22.62 60.8407 21.86C59.5393 21.092 58.5544 20.032 57.8861 18.68C57.2178 17.328 56.8837 15.768 56.8837 14C56.8837 12.232 57.2178 10.672 57.8861 9.32C58.5544 7.968 59.5393 6.912 60.8407 6.152C62.1422 5.384 63.7382 5 65.6288 5C67.5282 5 69.1242 5.384 70.4169 6.152C71.7183 6.912 72.7032 7.968 73.3715 9.32C74.0486 10.672 74.3871 12.232 74.3871 14C74.3871 15.768 74.0486 17.328 73.3715 18.68C72.7032 20.032 71.7183 21.092 70.4169 21.86C69.1242 22.62 67.5282 23 65.6288 23ZM65.6288 21.308C67.1149 21.308 68.3548 21 69.3484 20.384C70.3421 19.768 71.0852 18.912 71.5776 17.816C72.0788 16.712 72.3294 15.44 72.3294 14C72.3294 12.56 72.0788 11.292 71.5776 10.196C71.0852 9.1 70.3421 8.244 69.3484 7.628C68.3548 7.012 67.1149 6.7 65.6288 6.692C64.1427 6.692 62.9072 7 61.9223 7.616C60.9375 8.232 60.1944 9.092 59.6932 10.196C59.2008 11.292 58.9501 12.56 58.9414 14C58.9326 15.44 59.1744 16.708 59.6668 17.804C60.168 18.892 60.9155 19.748 61.9092 20.372C62.9028 20.988 64.1427 21.3 65.6288 21.308Z" fill="black"/>
<path d="M76.5011 22.64V22.268L86.8818 7.052H76.7649V5.36H90.0606V5.768L79.7327 20.96H89.9683V22.64H76.5011Z" fill="black"/>
<path d="M97.7573 22.64V15.404L91.3864 5.36H93.6288L98.7334 13.388L103.812 5.36H106.054L99.7095 15.404V22.64H97.7573Z" fill="black"/>
<path d="M114.525 23C112.635 23 111.039 22.62 109.737 21.86C108.436 21.092 107.451 20.032 106.783 18.68C106.114 17.328 105.78 15.768 105.78 14C105.78 12.232 106.114 10.672 106.783 9.32C107.451 7.968 108.436 6.912 109.737 6.152C111.039 5.384 112.635 5 114.525 5C116.733 5 118.535 5.516 119.933 6.548C121.332 7.572 122.29 8.948 122.809 10.676L120.83 11.144C120.426 9.776 119.7 8.692 118.654 7.892C117.608 7.092 116.231 6.692 114.525 6.692C113.039 6.692 111.804 7 110.819 7.616C109.834 8.232 109.091 9.092 108.59 10.196C108.097 11.292 107.842 12.56 107.825 14C107.816 15.44 108.058 16.708 108.55 17.804C109.051 18.9 109.799 19.76 110.793 20.384C111.795 21 113.039 21.308 114.525 21.308C116.231 21.308 117.608 20.908 118.654 20.108C119.7 19.3 120.426 18.216 120.83 16.856L122.809 17.324C122.29 19.052 121.332 20.432 119.933 21.464C118.535 22.488 116.733 23 114.525 23Z" fill="black"/>
<path d="M125.719 22.64V5.36H133.053C133.238 5.36 133.444 5.368 133.673 5.384C133.91 5.392 134.148 5.416 134.385 5.456C135.379 5.592 136.219 5.908 136.905 6.404C137.599 6.892 138.122 7.508 138.474 8.252C138.835 8.996 139.015 9.82 139.015 10.724C139.015 12.028 138.637 13.16 137.881 14.12C137.124 15.08 136.043 15.684 134.636 15.932L133.963 16.076H127.658V22.64H125.719ZM137.221 22.64L133.475 15.608L135.335 14.96L139.45 22.64H137.221ZM127.658 14.396H133C133.158 14.396 133.343 14.388 133.554 14.372C133.765 14.356 133.972 14.328 134.174 14.288C134.825 14.16 135.357 13.916 135.77 13.556C136.192 13.196 136.504 12.768 136.707 12.272C136.918 11.776 137.023 11.26 137.023 10.724C137.023 10.188 136.918 9.672 136.707 9.176C136.504 8.672 136.192 8.24 135.77 7.88C135.357 7.52 134.825 7.276 134.174 7.148C133.972 7.108 133.765 7.084 133.554 7.076C133.343 7.06 133.158 7.052 133 7.052H127.658V14.396Z" fill="black"/>
<path d="M141.043 5.36L147.585 22.64H150.157L156.699 5.36H154.681L148.469 21.656H149.234L143.061 5.36H141.043ZM143.958 9.548V11.204H153.771V9.548H143.958Z" fill="black"/>
<path d="M159.081 22.64V5.36H169.99V7.124H161.02V13.124H168.407V14.876H161.02V22.64H159.081Z" fill="black"/>
<path d="M177.426 22.64V7.052H170.792V5.36H186V7.052H179.365V22.64H177.426Z" fill="black"/>
<path d="M18.3667 24.5C16.2877 24.5 14.5326 24.0567 13.1014 23.17C11.6703 22.274 10.5873 21.0373 9.85237 19.46C9.11746 17.8827 8.75 16.0627 8.75 14C8.75 11.9373 9.11746 10.1173 9.85237 8.54C10.5873 6.96267 11.6703 5.73067 13.1014 4.844C14.5326 3.948 16.2877 3.5 18.3667 3.5C20.7938 3.5 22.7761 4.102 24.3137 5.306C25.8512 6.50067 26.9052 8.106 27.4757 10.122L25.3 10.668C24.8552 9.072 24.0574 7.80733 22.9067 6.874C21.756 5.94067 20.2426 5.474 18.3667 5.474C16.7325 5.474 15.3739 5.83333 14.2908 6.552C13.2078 7.27067 12.3907 8.274 11.8395 9.562C11.298 10.8407 11.0176 12.32 10.9982 14C10.9886 15.68 11.2545 17.1593 11.796 18.438C12.3472 19.7167 13.1691 20.72 14.2618 21.448C15.3642 22.1667 16.7325 22.526 18.3667 22.526C20.2426 22.526 21.756 22.0593 22.9067 21.126C24.0574 20.1833 24.8552 18.9187 25.3 17.332L27.4757 17.878C26.9052 19.894 25.8512 21.504 24.3137 22.708C22.7761 23.9027 20.7938 24.5 18.3667 24.5Z" fill="#AB7D41" fill-opacity="0.5"/>
<path d="M10.4917 24.5C8.41266 24.5 6.65758 24.0567 5.22644 23.17C3.7953 22.274 2.71228 21.0373 1.97737 19.46C1.24245 17.8827 0.875 16.0627 0.875 14C0.875 11.9373 1.24245 10.1173 1.97737 8.54C2.71228 6.96267 3.7953 5.73067 5.22644 4.844C6.65758 3.948 8.41266 3.5 10.4917 3.5C12.9188 3.5 14.9011 4.102 16.4387 5.306C17.9762 6.50067 19.0302 8.106 19.6007 10.122L17.425 10.668C16.9802 9.072 16.1824 7.80733 15.0317 6.874C13.881 5.94067 12.3676 5.474 10.4917 5.474C8.85748 5.474 7.49886 5.83333 6.41583 6.552C5.33281 7.27067 4.51571 8.274 3.96452 9.562C3.42301 10.8407 3.14258 12.32 3.12324 14C3.11357 15.68 3.3795 17.1593 3.92101 18.438C4.47219 19.7167 5.29413 20.72 6.38683 21.448C7.48919 22.1667 8.85748 22.526 10.4917 22.526C12.3676 22.526 13.881 22.0593 15.0317 21.126C16.1824 20.1833 16.9802 18.9187 17.425 17.332L19.6007 17.878C19.0302 19.894 17.9762 21.504 16.4387 22.708C14.9011 23.9027 12.9188 24.5 10.4917 24.5Z" fill="#AB7D41"/>
</svg>
