<svg width="44" height="44" viewBox="0 0 44 44" fill="none" xmlns="http://www.w3.org/2000/svg">
<path d="M18.832 6.79251C19.0234 7.09875 19.1526 7.43969 19.2122 7.79587C19.2719 8.15205 19.2608 8.51649 19.1796 8.86837C19.0984 9.22026 18.9487 9.55271 18.739 9.84673C18.5293 10.1408 18.2637 10.3906 17.9575 10.582C14.6088 12.6648 11.9493 15.6897 10.3125 19.2775C11.9677 19.1391 13.6261 19.5035 15.0708 20.3231C16.5155 21.1427 17.6791 22.3792 18.4095 23.871C19.1399 25.3627 19.403 27.0402 19.1644 28.6839C18.9258 30.3277 18.1966 31.8611 17.0722 33.0837C15.9478 34.3062 14.4806 35.1608 12.8625 35.5358C11.2445 35.9108 9.55087 35.7886 8.00335 35.1853C6.45583 34.582 5.12645 33.5256 4.18914 32.1544C3.25183 30.7832 2.75024 29.161 2.75 27.5V27.4258C2.75215 27.2128 2.76132 27.0001 2.7775 26.7878C2.80225 26.3753 2.85175 25.7978 2.948 25.0883C3.1405 23.6775 3.51725 21.7333 4.279 19.5498C5.797 15.1773 8.8715 9.77351 15.0425 5.91801C15.3487 5.7266 15.6897 5.5974 16.0459 5.53776C16.402 5.47812 16.7665 5.48922 17.1184 5.57042C17.4703 5.65163 17.8027 5.80135 18.0967 6.01103C18.3908 6.22072 18.6406 6.48626 18.832 6.79251ZM38.082 6.79251C38.2734 7.09875 38.4026 7.43969 38.4622 7.79587C38.5219 8.15205 38.5108 8.51649 38.4296 8.86837C38.3484 9.22026 38.1987 9.55271 37.989 9.84673C37.7793 10.1408 37.5137 10.3906 37.2075 10.582C33.8587 12.6646 31.1992 15.6896 29.5625 19.2775C31.2177 19.1391 32.8761 19.5035 34.3208 20.3231C35.7655 21.1427 36.9291 22.3792 37.6595 23.871C38.3899 25.3627 38.653 27.0402 38.4144 28.6839C38.1758 30.3277 37.4466 31.8611 36.3222 33.0837C35.1978 34.3062 33.7306 35.1608 32.1125 35.5358C30.4945 35.9108 28.8009 35.7886 27.2533 35.1853C25.7058 34.582 24.3764 33.5256 23.4391 32.1544C22.5018 30.7832 22.0002 29.161 22 27.5V27.4258C22.0021 27.2128 22.0113 27.0001 22.0275 26.7878C22.0522 26.3753 22.1017 25.7978 22.198 25.0883C22.3905 23.6775 22.7673 21.7333 23.529 19.5498C25.047 15.1773 28.1215 9.77351 34.2925 5.91801C34.5987 5.7266 34.9397 5.5974 35.2959 5.53776C35.652 5.47812 36.0165 5.48922 36.3684 5.57042C36.7203 5.65163 37.0527 5.80135 37.3467 6.01103C37.6408 6.22072 37.8906 6.48626 38.082 6.79251Z" fill="#AB7D41"/>
</svg>
