<svg width="44" height="44" viewBox="0 0 44 44" fill="none" xmlns="http://www.w3.org/2000/svg">
<path d="M25.168 37.2075C24.9766 36.9013 24.8474 36.5603 24.7878 36.2041C24.7281 35.848 24.7392 35.4835 24.8204 35.1316C24.9016 34.7797 25.0513 34.4473 25.261 34.1533C25.4707 33.8592 25.7363 33.6094 26.0425 33.418C29.3912 31.3352 32.0507 28.3103 33.6875 24.7225C32.0323 24.8609 30.3739 24.4965 28.9292 23.6769C27.4845 22.8573 26.3209 21.6208 25.5905 20.129C24.8601 18.6373 24.597 16.9598 24.8356 15.3161C25.0742 13.6723 25.8034 12.1389 26.9278 10.9163C28.0522 9.69383 29.5194 8.83917 31.1375 8.46418C32.7555 8.0892 34.4491 8.21135 35.9967 8.81466C37.5442 9.41798 38.8736 10.4744 39.8109 11.8456C40.7482 13.2168 41.2498 14.839 41.25 16.5V16.5742C41.2479 16.7872 41.2387 16.9999 41.2225 17.2122C41.1978 17.6247 41.1482 18.2022 41.052 18.9117C40.8595 20.3225 40.4828 22.2667 39.721 24.4502C38.203 28.8227 35.1285 34.2265 28.9575 38.082C28.6513 38.2734 28.3103 38.4026 27.9541 38.4622C27.598 38.5219 27.2335 38.5108 26.8816 38.4296C26.5297 38.3484 26.1973 38.1987 25.9033 37.989C25.6092 37.7793 25.3594 37.5137 25.168 37.2075ZM5.918 37.2075C5.7266 36.9013 5.59739 36.5603 5.53775 36.2041C5.47811 35.848 5.48921 35.4835 5.57042 35.1316C5.65162 34.7797 5.80134 34.4473 6.01103 34.1533C6.22071 33.8592 6.48626 33.6094 6.7925 33.418C10.1413 31.3354 12.8008 28.3104 14.4375 24.7225C12.7823 24.8609 11.1239 24.4965 9.6792 23.6769C8.23452 22.8573 7.07085 21.6208 6.34046 20.129C5.61007 18.6373 5.34697 16.9598 5.58557 15.3161C5.82417 13.6723 6.55337 12.1389 7.67776 10.9163C8.80215 9.69383 10.2694 8.83917 11.8875 8.46418C13.5055 8.0892 15.1991 8.21135 16.7467 8.81466C18.2942 9.41798 19.6236 10.4744 20.5609 11.8456C21.4982 13.2168 21.9998 14.839 22 16.5V16.5742C21.9979 16.7872 21.9887 16.9999 21.9725 17.2122C21.9478 17.6247 21.8983 18.2022 21.802 18.9117C21.6095 20.3225 21.2327 22.2667 20.471 24.4502C18.953 28.8227 15.8785 34.2265 9.7075 38.082C9.40126 38.2734 9.06031 38.4026 8.70414 38.4622C8.34796 38.5219 7.98352 38.5108 7.63163 38.4296C7.27975 38.3484 6.9473 38.1987 6.65327 37.989C6.35925 37.7793 6.1094 37.5137 5.918 37.2075Z" fill="#AB7D41"/>
</svg>
