<svg width="24" height="24" viewBox="0 0 24 24" fill="none" xmlns="http://www.w3.org/2000/svg">
<path d="M11.9999 1.09082C5.97809 1.09082 1.09082 5.97809 1.09082 11.9999C1.09082 18.0217 5.97809 22.909 11.9999 22.909C18.0217 22.909 22.909 18.0217 22.909 11.9999C22.909 5.97809 18.0217 1.09082 11.9999 1.09082ZM17.0617 8.509C16.8981 10.2326 16.189 14.4217 15.829 16.3526C15.6763 17.1708 15.3708 17.4435 15.0872 17.4763C14.4545 17.5308 13.9745 17.0617 13.3635 16.6581C12.4035 16.0254 11.8581 15.6326 10.9308 15.0217C9.85082 14.3126 10.549 13.9199 11.1708 13.2872C11.3345 13.1235 14.1272 10.5817 14.1817 10.3526C14.1893 10.3179 14.1883 10.2819 14.1788 10.2477C14.1693 10.2135 14.1516 10.1821 14.1272 10.1563C14.0617 10.1017 13.9745 10.1235 13.8981 10.1345C13.7999 10.1563 12.2726 11.1708 9.29446 13.1781C8.85809 13.4726 8.46537 13.6254 8.11627 13.6145C7.72355 13.6035 6.98173 13.3963 6.42537 13.2108C5.73809 12.9926 5.20355 12.8726 5.24718 12.4908C5.269 12.2945 5.54173 12.0981 6.05446 11.8908C9.23991 10.5054 11.3563 9.589 12.4145 9.15264C15.4472 7.88718 16.069 7.669 16.4835 7.669C16.5708 7.669 16.7781 7.69082 16.909 7.79991C17.0181 7.88718 17.0508 8.00718 17.0617 8.09446C17.0508 8.15991 17.0726 8.35628 17.0617 8.509Z" fill="#229ED9"/>
</svg>
