<svg width="24" height="24" viewBox="0 0 24 24" fill="none" xmlns="http://www.w3.org/2000/svg">
<path d="M2.52727 2.52727C1 4.06909 1 6.53455 1 11.4727V12.3455C1 17.2764 1 19.7418 2.52727 21.2909C4.06909 22.8182 6.53455 22.8182 11.4727 22.8182H12.3455C17.2764 22.8182 19.7418 22.8182 21.2909 21.2909C22.8182 19.7491 22.8182 17.2836 22.8182 12.3455V11.4727C22.8182 6.54182 22.8182 4.07636 21.2909 2.52727C19.7491 1 17.2836 1 12.3455 1H11.4727C6.54182 1 4.07636 1 2.52727 2.52727ZM4.68 7.64H7.18182C7.26182 11.8 9.09455 13.56 10.5491 13.9236V7.64H12.8982V11.2255C14.3309 11.0727 15.8436 9.43636 16.3527 7.63273H18.6945C18.5037 8.5664 18.1223 9.45067 17.5742 10.2303C17.0261 11.0099 16.3231 11.668 15.5091 12.1636C16.4175 12.6156 17.2197 13.2551 17.8628 14.0398C18.506 14.8246 18.9753 15.7369 19.24 16.7164H16.6582C16.1055 14.9927 14.7236 13.6545 12.8982 13.4727V16.7164H12.6073C7.63273 16.7164 4.79636 13.3127 4.68 7.64Z" fill="#0077FF"/>
</svg>
