<svg width="24" height="24" viewBox="0 0 24 24" fill="none" xmlns="http://www.w3.org/2000/svg">
<path d="M11.9999 1.09082C18.025 1.09082 22.909 5.97482 22.909 11.9999C22.909 18.025 18.025 22.909 11.9999 22.909C10.072 22.9121 8.17809 22.4019 6.51265 21.4308L1.0952 22.909L2.57011 17.4894C1.59821 15.8234 1.08761 13.9286 1.09084 11.9999C1.09084 5.97482 5.97483 1.09082 11.9999 1.09082ZM8.2821 6.87264L8.06392 6.88136C7.92267 6.88996 7.78463 6.92707 7.6581 6.99045C7.53976 7.05747 7.43174 7.14124 7.33738 7.23918C7.20647 7.36245 7.13229 7.46936 7.05265 7.573C6.64915 8.09762 6.43189 8.7417 6.4352 9.40354C6.43738 9.93809 6.57701 10.4585 6.7952 10.945C7.24138 11.929 7.97556 12.9708 8.94428 13.9363C9.17774 14.1686 9.40683 14.4021 9.65338 14.6192C10.8571 15.679 12.2915 16.4432 13.8425 16.8512L14.4621 16.9461C14.6639 16.957 14.8657 16.9417 15.0686 16.9319C15.3864 16.9155 15.6966 16.8295 15.9774 16.6799C16.1202 16.6063 16.2597 16.5262 16.3952 16.4399C16.3952 16.4399 16.4421 16.4094 16.5316 16.3417C16.6788 16.2326 16.7694 16.1552 16.8916 16.0275C16.9821 15.9337 17.0606 15.8235 17.1206 15.6981C17.2057 15.5203 17.2908 15.181 17.3257 14.8984C17.3519 14.6824 17.3443 14.5646 17.341 14.4915C17.3366 14.3748 17.2396 14.2537 17.1337 14.2024L16.4988 13.9177C16.4988 13.9177 15.5497 13.5043 14.9694 13.2403C14.9086 13.2138 14.8436 13.1986 14.7774 13.1955C14.7027 13.1879 14.6273 13.1963 14.5562 13.2202C14.4851 13.2441 14.4199 13.2829 14.365 13.3341C14.3596 13.3319 14.2865 13.3941 13.4977 14.3497C13.4525 14.4106 13.3901 14.4565 13.3186 14.4818C13.2471 14.507 13.1697 14.5104 13.0963 14.4915C13.0252 14.4725 12.9556 14.4484 12.8879 14.4195C12.7526 14.3628 12.7057 14.341 12.613 14.3017C11.9869 14.0285 11.4072 13.6593 10.8948 13.2075C10.7574 13.0875 10.6297 12.9566 10.4988 12.8301C10.0697 12.4191 9.69562 11.9541 9.3861 11.4468L9.32174 11.3432C9.27551 11.2735 9.23813 11.1984 9.21047 11.1195C9.16901 10.9592 9.27701 10.8305 9.27701 10.8305C9.27701 10.8305 9.5421 10.5403 9.66538 10.3832C9.78538 10.2305 9.88683 10.0821 9.95228 9.97627C10.081 9.769 10.1214 9.55627 10.0537 9.39154C9.74828 8.64536 9.43192 7.90245 9.10683 7.165C9.04247 7.01882 8.85156 6.91409 8.6781 6.89336C8.61919 6.88682 8.56028 6.88027 8.50138 6.87591C8.35487 6.86863 8.20807 6.87009 8.06174 6.88027L8.2821 6.87264Z" fill="#25D366"/>
</svg>
